<svg xmlns="http://www.w3.org/2000/svg" version="1.1" xlink="http://www.w3.org/1999/xlink" xmlns:svgjs="http://svgjs.com/svgjs" width="100%" height="100%" viewBox="8.331999778747559 4.167999267578125 83.33599853515625 91.66400146484375"><g fill="url(#SvgjsLinearGradient1003)"><g fill-rule="evenodd"><path d="M25 29.168c0-13.809 11.191-25 25-25s25 11.191 25 25v25c0 13.805-11.191 25-25 25s-25-11.195-25-25zM50 12.5c-9.203 0-16.668 7.46-16.668 16.668v25c0 9.203 7.465 16.664 16.668 16.664s16.668-7.46 16.668-16.664v-25C66.668 19.961 59.203 12.5 50 12.5z"></path><path d="M16.668 54.168C16.668 72.578 31.59 87.5 50 87.5s33.332-14.922 33.332-33.332h8.336c0 23.012-18.656 41.664-41.668 41.664S8.332 77.18 8.332 54.168zm54.164-18.75H50v-8.336h20.832z"></path><path d="M70.832 56.25H50v-8.332h20.832z"></path></g></g><defs><linearGradient gradientUnits="userSpaceOnUse" id="SvgjsLinearGradient1003" x1="6.24999904632571" y1="93.74999999999999" x2="93.7499990463257" y2="6.249999999999995"><stop stop-color="#d145fc" offset="0.05"></stop><stop stop-color="#9203be" offset="0.95"></stop></linearGradient></defs></svg>